<svg width="75" height="75" viewBox="0 0 75 75" fill="none" xmlns="http://www.w3.org/2000/svg">
<path d="M37.5083 18.271C26.867 18.271 18.2836 26.8563 18.2836 37.5C18.2836 48.1438 26.867 56.729 37.5083 56.729C48.1498 56.729 56.7333 48.1438 56.7333 37.5C56.7333 26.8563 48.1498 18.271 37.5083 18.271ZM37.5083 50.0015C30.6315 50.0015 25.0098 44.395 25.0098 37.5C25.0098 30.605 30.615 24.9986 37.5083 24.9986C44.4018 24.9986 50.007 30.605 50.007 37.5C50.007 44.395 44.385 50.0015 37.5083 50.0015ZM62.0038 17.4844C62.0038 19.978 59.9958 21.9695 57.5195 21.9695C55.0265 21.9695 53.0355 19.9612 53.0355 17.4844C53.0355 15.0075 55.0433 12.9993 57.5195 12.9993C59.9958 12.9993 62.0038 15.0075 62.0038 17.4844ZM74.7366 22.0364C74.4521 16.0284 73.0801 10.7065 68.6796 6.32183C64.2958 1.93713 58.9753 0.564823 52.9685 0.263583C46.7778 -0.087861 28.2223 -0.087861 22.0315 0.263583C16.0416 0.548088 10.7209 1.9204 6.32043 6.30511C1.91997 10.6898 0.564695 16.0117 0.263525 22.0197C-0.0878417 28.2118 -0.0878417 46.7715 0.263525 52.9635C0.547965 58.9716 1.91997 64.2936 6.32043 68.6783C10.7209 73.0628 16.0248 74.4353 22.0315 74.7366C28.2223 75.0878 46.7778 75.0878 52.9685 74.7366C58.9753 74.4521 64.2958 73.0796 68.6796 68.6783C73.0633 64.2936 74.4353 58.9716 74.7366 52.9635C75.0878 46.7715 75.0878 28.2285 74.7366 22.0364ZM66.7388 59.6075C65.4338 62.8878 62.9073 65.4148 59.611 66.7368C54.6753 68.6951 42.963 68.2431 37.5083 68.2431C32.0538 68.2431 20.3249 68.6783 15.4058 66.7368C12.1263 65.4316 9.59983 62.9046 8.27803 59.6075C6.32043 54.6705 6.77218 42.9558 6.77218 37.5C6.77218 32.0443 6.33715 20.3127 8.27803 15.3925C9.58311 12.1123 12.1096 9.58526 15.4058 8.26313C20.3416 6.30508 32.0538 6.75696 37.5083 6.75696C42.963 6.75696 54.6918 6.32183 59.611 8.26313C62.8906 9.56851 65.4171 12.0956 66.7388 15.3925C68.6963 20.3294 68.2446 32.0443 68.2446 37.5C68.2446 42.9558 68.6963 54.6873 66.7388 59.6075Z" fill="url(#paint0_linear_4_77)"/>
<defs>
<linearGradient id="paint0_linear_4_77" x1="37.5" y1="0" x2="37.5" y2="75" gradientUnits="userSpaceOnUse">
<stop stop-color="#E44751"/>
<stop offset="0.104167" stop-color="#E44747"/>
<stop offset="1" stop-color="#E01B9D" stop-opacity="0.38"/>
</linearGradient>
</defs>
</svg>
