<svg width="75" height="75" viewBox="0 0 75 75" fill="none" xmlns="http://www.w3.org/2000/svg">
<g clip-path="url(#clip0_4_70)">
<path d="M67.2907 18.6914C67.3385 19.5116 67.3385 20.3321 67.3385 21.1523C67.3385 46.1717 51.872 75 23.6042 75C14.8953 75 6.80525 71.8945 0 66.504C1.23736 66.6797 2.42696 66.7383 3.71193 66.7383C10.8977 66.7383 17.5127 63.75 22.7951 58.6525C16.0375 58.4765 10.3743 53.0275 8.42317 45.5272C9.37502 45.703 10.3268 45.8203 11.3262 45.8203C12.7063 45.8203 14.0864 45.5858 15.3713 45.1758C8.3281 43.4178 3.04557 35.8007 3.04557 26.6015V26.3673C5.09183 27.7735 7.47147 28.6525 9.9935 28.7695C5.85325 25.371 3.14077 19.5702 3.14077 13.0077C3.14077 9.49213 3.90208 6.26947 5.23465 3.45695C12.8013 14.9413 24.1751 22.4412 36.9287 23.2616C36.691 21.8554 36.5482 20.3907 36.5482 18.9258C36.5482 8.496 43.401 0 51.9195 0C56.3452 0 60.3425 2.28515 63.1505 5.97655C66.6243 5.15628 69.9555 3.57418 72.9062 1.40626C71.7637 5.8009 69.337 9.4923 66.1485 11.8359C69.2417 11.4259 72.24 10.371 75 8.90633C72.9065 12.6562 70.289 15.9959 67.2907 18.6914Z" fill="url(#paint0_linear_4_70)"/>
<path d="M67.2907 18.6914C67.3385 19.5116 67.3385 20.3321 67.3385 21.1523C67.3385 46.1717 51.872 75 23.6042 75C14.8953 75 6.80525 71.8945 0 66.504C1.23736 66.6797 2.42696 66.7383 3.71193 66.7383C10.8977 66.7383 17.5127 63.75 22.7951 58.6525C16.0375 58.4765 10.3743 53.0275 8.42317 45.5272C9.37502 45.703 10.3268 45.8203 11.3262 45.8203C12.7063 45.8203 14.0864 45.5858 15.3713 45.1758C8.3281 43.4178 3.04557 35.8007 3.04557 26.6015V26.3673C5.09183 27.7735 7.47147 28.6525 9.9935 28.7695C5.85325 25.371 3.14077 19.5702 3.14077 13.0077C3.14077 9.49213 3.90208 6.26947 5.23465 3.45695C12.8013 14.9413 24.1751 22.4412 36.9287 23.2616C36.691 21.8554 36.5482 20.3907 36.5482 18.9258C36.5482 8.496 43.401 0 51.9195 0C56.3452 0 60.3425 2.28515 63.1505 5.97655C66.6243 5.15628 69.9555 3.57418 72.9062 1.40626C71.7637 5.8009 69.337 9.4923 66.1485 11.8359C69.2417 11.4259 72.24 10.371 75 8.90633C72.9065 12.6562 70.289 15.9959 67.2907 18.6914Z" stroke="url(#paint1_linear_4_70)"/>
</g>
<defs>
<linearGradient id="paint0_linear_4_70" x1="37.5" y1="0" x2="37.5" y2="75" gradientUnits="userSpaceOnUse">
<stop stop-color="#8DD2E8"/>
<stop offset="1" stop-color="#87C0E0" stop-opacity="0.52"/>
</linearGradient>
<linearGradient id="paint1_linear_4_70" x1="37.5" y1="0" x2="37.5" y2="75" gradientUnits="userSpaceOnUse">
<stop stop-color="#8DD2E8"/>
<stop offset="1" stop-color="#87C0E0" stop-opacity="0.52"/>
</linearGradient>
<clipPath id="clip0_4_70">
<rect width="75" height="75" fill="white"/>
</clipPath>
</defs>
</svg>
