<svg width="111" height="75" viewBox="0 0 111 75" fill="none" xmlns="http://www.w3.org/2000/svg">
<g clip-path="url(#clip0_4_73)">
<path d="M108.093 11.735C106.823 7.11582 103.082 3.47793 98.3325 2.24336C89.7231 0 55.2 0 55.2 0C55.2 0 20.6771 0 12.0674 2.24336C7.31757 3.47814 3.5766 7.11582 2.30692 11.735C0 20.1074 0 37.5759 0 37.5759C0 37.5759 0 55.044 2.30692 63.4167C3.5766 68.0358 7.31757 71.5221 12.0674 72.7566C20.6771 75 55.2 75 55.2 75C55.2 75 89.7228 75 98.3325 72.7566C103.082 71.5221 106.823 68.0358 108.093 63.4167C110.4 55.044 110.4 37.5759 110.4 37.5759C110.4 37.5759 110.4 20.1074 108.093 11.735ZM43.9089 53.4357V21.7158L72.7635 37.5762L43.9089 53.4357Z" fill="#F21A1A"/>
</g>
<defs>
<clipPath id="clip0_4_73">
<rect width="110.4" height="75" fill="white"/>
</clipPath>
</defs>
</svg>
